{
	"asset":{
		"generator":"Khronos glTF Blender I/O v4.1.63",
		"version":"2.0"
	},
	"extensionsUsed":[
		"KHR_materials_transmission"
	],
	"scene":0,
	"scenes":[
		{
			"extras":{
				"uuid":"1ff9bd39-cabf-49a8-836d-c8784bf9e462",
				"assets reported":{}
			},
			"name":"Scene",
			"nodes":[
				0,
				1,
				2,
				3,
				4,
				5,
				6,
				7
			]
		}
	],
	"nodes":[
		{
			"camera":0,
			"name":"Camera",
			"rotation":[
				0.003135466715320945,
				0.0025476845912635326,
				-8.09747234598035e-06,
				0.9999918341636658
			],
			"translation":[
				-0.03311089426279068,
				-0.013063237071037292,
				21.88914680480957
			]
		},
		{
			"mesh":0,
			"name":"Phone",
			"rotation":[
				0,
				0.7071068286895752,
				0,
				0.7071068286895752
			]
		},
		{
			"mesh":1,
			"name":"Glass",
			"rotation":[
				0,
				0.7071068286895752,
				0,
				0.7071068286895752
			],
			"translation":[
				0,
				0,
				-0.008259356021881104
			]
		},
		{
			"mesh":2,
			"name":"camerahole",
			"translation":[
				0.007250587921589613,
				3.3819844722747803,
				0
			]
		},
		{
			"mesh":3,
			"name":"sidebutton1",
			"translation":[
				1.7321372032165527,
				1.8073110580444336,
				0
			]
		},
		{
			"mesh":4,
			"name":"sidebutton2",
			"scale":[
				1,
				0.5309033393859863,
				1
			],
			"translation":[
				1.7321372032165527,
				0.6450502872467041,
				0
			]
		},
		{
			"mesh":5,
			"name":"aroundphone",
			"rotation":[
				0,
				0.7071068286895752,
				0,
				0.7071068286895752
			]
		},
		{
			"mesh":6,
			"name":"Screen.001",
			"rotation":[
				0,
				0.7071068286895752,
				0,
				0.7071068286895752
			],
			"translation":[
				0,
				0,
				-0.015415877103805542
			]
		}
	],
	"cameras":[
		{
			"name":"Camera",
			"perspective":{
				"aspectRatio":1.7777777777777777,
				"yfov":0.39959652046304894,
				"zfar":100,
				"znear":0.10000000149011612
			},
			"type":"perspective"
		}
	],
	"materials":[
		{
			"doubleSided":true,
			"name":"Body",
			"pbrMetallicRoughness":{
				"baseColorFactor":[
					0.7311176657676697,
					0.2579253017902374,
					0.8006458282470703,
					1
				],
				"metallicFactor":0.8318182229995728,
				"roughnessFactor":0.4727272391319275
			}
		},
		{
			"doubleSided":true,
			"extensions":{
				"KHR_materials_transmission":{
					"transmissionFactor":1
				}
			},
			"name":"Glas",
			"pbrMetallicRoughness":{
				"baseColorFactor":[
					1,
					1,
					1,
					0.20454545319080353
				],
				"metallicFactor":0,
				"roughnessFactor":0
			}
		},
		{
			"doubleSided":true,
			"name":"Black",
			"pbrMetallicRoughness":{
				"baseColorFactor":[
					0,
					0,
					0,
					1
				],
				"metallicFactor":0,
				"roughnessFactor":0.5
			}
		},
		{
			"doubleSided":true,
			"name":"Screen",
			"pbrMetallicRoughness":{
				"baseColorFactor":[
					0.800000011920929,
					0.800000011920929,
					0.800000011920929,
					1
				],
				"metallicFactor":0
			}
		}
	],
	"meshes":[
		{
			"name":"Cube.006",
			"primitives":[
				{
					"attributes":{
						"POSITION":0,
						"NORMAL":1,
						"TEXCOORD_0":2
					},
					"indices":3,
					"material":0
				}
			]
		},
		{
			"name":"Cube.008",
			"primitives":[
				{
					"attributes":{
						"POSITION":4,
						"NORMAL":5,
						"TEXCOORD_0":6
					},
					"indices":7,
					"material":1
				}
			]
		},
		{
			"name":"Cube.009",
			"primitives":[
				{
					"attributes":{
						"POSITION":8,
						"NORMAL":9,
						"TEXCOORD_0":10
					},
					"indices":11,
					"material":2
				}
			]
		},
		{
			"name":"Cube.010",
			"primitives":[
				{
					"attributes":{
						"POSITION":12,
						"NORMAL":13,
						"TEXCOORD_0":14
					},
					"indices":15,
					"material":0
				}
			]
		},
		{
			"name":"Cube.011",
			"primitives":[
				{
					"attributes":{
						"POSITION":16,
						"NORMAL":17,
						"TEXCOORD_0":18
					},
					"indices":15,
					"material":0
				}
			]
		},
		{
			"name":"Cube.012",
			"primitives":[
				{
					"attributes":{
						"POSITION":19,
						"NORMAL":20,
						"TEXCOORD_0":21
					},
					"indices":22,
					"material":2
				}
			]
		},
		{
			"name":"Cube.013",
			"primitives":[
				{
					"attributes":{
						"POSITION":23,
						"NORMAL":24,
						"TEXCOORD_0":25
					},
					"indices":7,
					"material":3
				}
			]
		}
	],
	"accessors":[
		{
			"bufferView":0,
			"componentType":5126,
			"count":218,
			"max":[
				0.17115400731563568,
				3.658474922180176,
				1.7649999856948853
			],
			"min":[
				-0.17115400731563568,
				-3.658474922180176,
				-1.7649999856948853
			],
			"type":"VEC3"
		},
		{
			"bufferView":1,
			"componentType":5126,
			"count":218,
			"type":"VEC3"
		},
		{
			"bufferView":2,
			"componentType":5126,
			"count":218,
			"type":"VEC2"
		},
		{
			"bufferView":3,
			"componentType":5123,
			"count":606,
			"type":"SCALAR"
		},
		{
			"bufferView":4,
			"componentType":5126,
			"count":4,
			"max":[
				-0.1621266007423401,
				3.516538381576538,
				1.623063325881958
			],
			"min":[
				-0.1621266007423401,
				-3.516538381576538,
				-1.623063325881958
			],
			"type":"VEC3"
		},
		{
			"bufferView":5,
			"componentType":5126,
			"count":4,
			"type":"VEC3"
		},
		{
			"bufferView":6,
			"componentType":5126,
			"count":4,
			"type":"VEC2"
		},
		{
			"bufferView":7,
			"componentType":5123,
			"count":6,
			"type":"SCALAR"
		},
		{
			"bufferView":8,
			"componentType":5126,
			"count":216,
			"max":[
				0.07771989703178406,
				0.07771989703178406,
				0.16561631858348846
			],
			"min":[
				-0.07771989703178406,
				-0.07771989703178406,
				0.010176524519920349
			],
			"type":"VEC3"
		},
		{
			"bufferView":9,
			"componentType":5126,
			"count":216,
			"type":"VEC3"
		},
		{
			"bufferView":10,
			"componentType":5126,
			"count":216,
			"type":"VEC2"
		},
		{
			"bufferView":11,
			"componentType":5123,
			"count":420,
			"type":"SCALAR"
		},
		{
			"bufferView":12,
			"componentType":5126,
			"count":571,
			"max":[
				0.078377865254879,
				0.44820091128349304,
				0.044833336025476456
			],
			"min":[
				-0.078377865254879,
				-0.44820091128349304,
				-0.044833336025476456
			],
			"type":"VEC3"
		},
		{
			"bufferView":13,
			"componentType":5126,
			"count":571,
			"type":"VEC3"
		},
		{
			"bufferView":14,
			"componentType":5126,
			"count":571,
			"type":"VEC2"
		},
		{
			"bufferView":15,
			"componentType":5123,
			"count":2916,
			"type":"SCALAR"
		},
		{
			"bufferView":16,
			"componentType":5126,
			"count":571,
			"max":[
				0.078377865254879,
				0.44820091128349304,
				0.044833336025476456
			],
			"min":[
				-0.078377865254879,
				-0.44820091128349304,
				-0.044833336025476456
			],
			"type":"VEC3"
		},
		{
			"bufferView":17,
			"componentType":5126,
			"count":571,
			"type":"VEC3"
		},
		{
			"bufferView":18,
			"componentType":5126,
			"count":571,
			"type":"VEC2"
		},
		{
			"bufferView":19,
			"componentType":5126,
			"count":8,
			"max":[
				-0.1621266007423401,
				3.5752248764038086,
				1.681749939918518
			],
			"min":[
				-0.1621266007423401,
				-3.5752248764038086,
				-1.681749939918518
			],
			"type":"VEC3"
		},
		{
			"bufferView":20,
			"componentType":5126,
			"count":8,
			"type":"VEC3"
		},
		{
			"bufferView":21,
			"componentType":5126,
			"count":8,
			"type":"VEC2"
		},
		{
			"bufferView":22,
			"componentType":5123,
			"count":24,
			"type":"SCALAR"
		},
		{
			"bufferView":23,
			"componentType":5126,
			"count":4,
			"max":[
				-0.1621266007423401,
				3.516538381576538,
				1.623063325881958
			],
			"min":[
				-0.1621266007423401,
				-3.516538381576538,
				-1.623063325881958
			],
			"type":"VEC3"
		},
		{
			"bufferView":24,
			"componentType":5126,
			"count":4,
			"type":"VEC3"
		},
		{
			"bufferView":25,
			"componentType":5126,
			"count":4,
			"type":"VEC2"
		}
	],
	"bufferViews":[
		{
			"buffer":0,
			"byteLength":2616,
			"byteOffset":0,
			"target":34962
		},
		{
			"buffer":0,
			"byteLength":2616,
			"byteOffset":2616,
			"target":34962
		},
		{
			"buffer":0,
			"byteLength":1744,
			"byteOffset":5232,
			"target":34962
		},
		{
			"buffer":0,
			"byteLength":1212,
			"byteOffset":6976,
			"target":34963
		},
		{
			"buffer":0,
			"byteLength":48,
			"byteOffset":8188,
			"target":34962
		},
		{
			"buffer":0,
			"byteLength":48,
			"byteOffset":8236,
			"target":34962
		},
		{
			"buffer":0,
			"byteLength":32,
			"byteOffset":8284,
			"target":34962
		},
		{
			"buffer":0,
			"byteLength":12,
			"byteOffset":8316,
			"target":34963
		},
		{
			"buffer":0,
			"byteLength":2592,
			"byteOffset":8328,
			"target":34962
		},
		{
			"buffer":0,
			"byteLength":2592,
			"byteOffset":10920,
			"target":34962
		},
		{
			"buffer":0,
			"byteLength":1728,
			"byteOffset":13512,
			"target":34962
		},
		{
			"buffer":0,
			"byteLength":840,
			"byteOffset":15240,
			"target":34963
		},
		{
			"buffer":0,
			"byteLength":6852,
			"byteOffset":16080,
			"target":34962
		},
		{
			"buffer":0,
			"byteLength":6852,
			"byteOffset":22932,
			"target":34962
		},
		{
			"buffer":0,
			"byteLength":4568,
			"byteOffset":29784,
			"target":34962
		},
		{
			"buffer":0,
			"byteLength":5832,
			"byteOffset":34352,
			"target":34963
		},
		{
			"buffer":0,
			"byteLength":6852,
			"byteOffset":40184,
			"target":34962
		},
		{
			"buffer":0,
			"byteLength":6852,
			"byteOffset":47036,
			"target":34962
		},
		{
			"buffer":0,
			"byteLength":4568,
			"byteOffset":53888,
			"target":34962
		},
		{
			"buffer":0,
			"byteLength":96,
			"byteOffset":58456,
			"target":34962
		},
		{
			"buffer":0,
			"byteLength":96,
			"byteOffset":58552,
			"target":34962
		},
		{
			"buffer":0,
			"byteLength":64,
			"byteOffset":58648,
			"target":34962
		},
		{
			"buffer":0,
			"byteLength":48,
			"byteOffset":58712,
			"target":34963
		},
		{
			"buffer":0,
			"byteLength":48,
			"byteOffset":58760,
			"target":34962
		},
		{
			"buffer":0,
			"byteLength":48,
			"byteOffset":58808,
			"target":34962
		},
		{
			"buffer":0,
			"byteLength":32,
			"byteOffset":58856,
			"target":34962
		}
	],
	"buffers":[
		{
			"byteLength":58888,
			"uri":"data:application/octet-stream;base64,"
		}
	]
}
