{
	"asset":{
		"generator":"Khronos glTF Blender I/O v4.1.63",
		"version":"2.0"
	},
	"extensionsUsed":[
		"KHR_materials_specular",
		"KHR_materials_ior"
	],
	"scene":0,
	"scenes":[
		{
			"name":"Scene",
			"nodes":[
				0,
				1,
				2
			]
		}
	],
	"nodes":[
		{
			"mesh":0,
			"name":"Phone",
			"translation":[
				0,
				0,
				-0.3944030702114105
			]
		},
		{
			"mesh":1,
			"name":"Camera",
			"translation":[
				0.0036930416245013475,
				0.07143322378396988,
				-0.39268437027931213
			]
		},
		{
			"mesh":2,
			"name":"Screen",
			"translation":[
				0,
				0,
				-0.3944030702114105
			]
		}
	],
	"materials":[
		{
			"doubleSided":true,
			"name":"Matte Metallic Paint",
			"pbrMetallicRoughness":{}
		},
		{
			"doubleSided":true,
			"extensions":{
				"KHR_materials_specular":{
					"specularFactor":0.5454545021057129
				},
				"KHR_materials_ior":{
					"ior":1.4500000476837158
				}
			},
			"name":"Plastic",
			"pbrMetallicRoughness":{
				"metallicFactor":0
			}
		}
	],
	"meshes":[
		{
			"name":"Cube.002",
			"primitives":[
				{
					"attributes":{
						"POSITION":0,
						"NORMAL":1,
						"TEXCOORD_0":2,
						"TEXCOORD_1":3
					},
					"indices":4,
					"material":0
				}
			]
		},
		{
			"name":"Cube.003",
			"primitives":[
				{
					"attributes":{
						"POSITION":5,
						"NORMAL":6,
						"TEXCOORD_0":7,
						"TEXCOORD_1":8
					},
					"indices":9,
					"material":0
				}
			]
		},
		{
			"name":"Cube.005",
			"primitives":[
				{
					"attributes":{
						"POSITION":10,
						"NORMAL":11,
						"TEXCOORD_0":12
					},
					"indices":13,
					"material":1
				}
			]
		}
	],
	"accessors":[
		{
			"bufferView":0,
			"componentType":5126,
			"count":1870,
			"max":[
				0.004791887477040291,
				0.07919175177812576,
				0.035435765981674194
			],
			"min":[
				-0.004780165385454893,
				-0.059676170349121094,
				-0.03214895725250244
			],
			"type":"VEC3"
		},
		{
			"bufferView":1,
			"componentType":5126,
			"count":1870,
			"type":"VEC3"
		},
		{
			"bufferView":2,
			"componentType":5126,
			"count":1870,
			"type":"VEC2"
		},
		{
			"bufferView":3,
			"componentType":5126,
			"count":1870,
			"type":"VEC2"
		},
		{
			"bufferView":4,
			"componentType":5123,
			"count":3732,
			"type":"SCALAR"
		},
		{
			"bufferView":5,
			"componentType":5126,
			"count":624,
			"max":[
				0.0010879940818995237,
				0.0028455876745283604,
				0.00960130151361227
			],
			"min":[
				-0.0010879940818995237,
				-0.0028455876745283604,
				-0.00960130151361227
			],
			"type":"VEC3"
		},
		{
			"bufferView":6,
			"componentType":5126,
			"count":624,
			"type":"VEC3"
		},
		{
			"bufferView":7,
			"componentType":5126,
			"count":624,
			"type":"VEC2"
		},
		{
			"bufferView":8,
			"componentType":5126,
			"count":624,
			"type":"VEC2"
		},
		{
			"bufferView":9,
			"componentType":5123,
			"count":1236,
			"type":"SCALAR"
		},
		{
			"bufferView":10,
			"componentType":5126,
			"count":520,
			"max":[
				0.004604183603078127,
				0.07585067301988602,
				0.03209468722343445
			],
			"min":[
				0.004604183603078127,
				-0.05633509159088135,
				-0.028807876631617546
			],
			"type":"VEC3"
		},
		{
			"bufferView":11,
			"componentType":5126,
			"count":520,
			"type":"VEC3"
		},
		{
			"bufferView":12,
			"componentType":5126,
			"count":520,
			"type":"VEC2"
		},
		{
			"bufferView":13,
			"componentType":5123,
			"count":1860,
			"type":"SCALAR"
		}
	],
	"bufferViews":[
		{
			"buffer":0,
			"byteLength":22440,
			"byteOffset":0,
			"target":34962
		},
		{
			"buffer":0,
			"byteLength":22440,
			"byteOffset":22440,
			"target":34962
		},
		{
			"buffer":0,
			"byteLength":14960,
			"byteOffset":44880,
			"target":34962
		},
		{
			"buffer":0,
			"byteLength":14960,
			"byteOffset":59840,
			"target":34962
		},
		{
			"buffer":0,
			"byteLength":7464,
			"byteOffset":74800,
			"target":34963
		},
		{
			"buffer":0,
			"byteLength":7488,
			"byteOffset":82264,
			"target":34962
		},
		{
			"buffer":0,
			"byteLength":7488,
			"byteOffset":89752,
			"target":34962
		},
		{
			"buffer":0,
			"byteLength":4992,
			"byteOffset":97240,
			"target":34962
		},
		{
			"buffer":0,
			"byteLength":4992,
			"byteOffset":102232,
			"target":34962
		},
		{
			"buffer":0,
			"byteLength":2472,
			"byteOffset":107224,
			"target":34963
		},
		{
			"buffer":0,
			"byteLength":6240,
			"byteOffset":109696,
			"target":34962
		},
		{
			"buffer":0,
			"byteLength":6240,
			"byteOffset":115936,
			"target":34962
		},
		{
			"buffer":0,
			"byteLength":4160,
			"byteOffset":122176,
			"target":34962
		},
		{
			"buffer":0,
			"byteLength":3720,
			"byteOffset":126336,
			"target":34963
		}
	],
	"buffers":[
		{
			"byteLength":130056,
			"uri":"data:application/octet-stream;base64,"
		}
	]
}
