{
  "asset": {
    "version": "2.0",
    "generator": "THREE.GLTFExporter r167"
  },
  "scenes": [
    {
      "name": "Scene",
      "nodes": [
        6
      ]
    }
  ],
  "scene": 0,
  "nodes": [
    {
      "matrix": [
        -1.3435885648505064e-7,
        0,
        1.0000001343588565,
        0,
        0,
        1,
        0,
        0,
        -1.0000001343588565,
        0,
        -1.3435885648505064e-7,
        0,
        0,
        0,
        0,
        1
      ],
      "name": "Screen",
      "extras": {
        "name": "Screen"
      },
      "mesh": 0
    },
    {
      "matrix": [
        0,
        0,
        1,
        0,
        1,
        0,
        0,
        0,
        0,
        1,
        0,
        0,
        0.21002978086471558,
        0.13441544771194458,
        -0.2036854773759842,
        1
      ],
      "name": "Point001",
      "extras": {
        "name": "Point.001"
      },
      "extensions": {
        "KHR_lights_punctual": {
          "light": 0
        }
      }
    },
    {
      "matrix": [
        0,
        0,
        1,
        0,
        1,
        0,
        0,
        0,
        0,
        1,
        0,
        0,
        -0.05107547342777252,
        0.13441544771194458,
        0.08821338415145874,
        1
      ],
      "name": "Point",
      "extras": {
        "name": "Point"
      },
      "extensions": {
        "KHR_lights_punctual": {
          "light": 1
        }
      }
    },
    {
      "matrix": [
        -1.3435885648505064e-7,
        0,
        1.0000001343588565,
        0,
        0,
        1,
        0,
        0,
        -1.0000001343588565,
        0,
        -1.3435885648505064e-7,
        0,
        0.000032996293157339096,
        0,
        -0.00034105777740478516,
        1
      ],
      "name": "Phone",
      "extras": {
        "name": "Phone"
      },
      "mesh": 1
    },
    {
      "matrix": [
        1,
        0,
        0,
        0,
        0,
        0.999780621661479,
        -0.020945370820290243,
        0,
        0,
        0.020945370820290243,
        0.999780621661479,
        0,
        0,
        0.009999999776482582,
        0.21961833536624908,
        1
      ],
      "name": "Camera001",
      "extras": {
        "name": "Camera.001"
      },
      "camera": 0
    },
    {
      "matrix": [
        -1.3435885648505064e-7,
        0,
        1.0000001343588565,
        0,
        0,
        1,
        0,
        0,
        -1.0000001343588565,
        0,
        -1.3435885648505064e-7,
        0,
        0.000032996293157339096,
        0,
        -0.00034105777740478516,
        1
      ],
      "name": "Camera",
      "extras": {
        "name": "Camera"
      },
      "mesh": 2
    },
    {
      "name": "phone2.1.gltf",
      "children": [
        0,
        1,
        2,
        3,
        4,
        5
      ]
    }
  ],
  "bufferViews": [
    {
      "buffer": 0,
      "byteOffset": 0,
      "byteLength": 6240,
      "target": 34962,
      "byteStride": 12
    },
    {
      "buffer": 0,
      "byteOffset": 6240,
      "byteLength": 6240,
      "target": 34962,
      "byteStride": 12
    },
    {
      "buffer": 0,
      "byteOffset": 12480,
      "byteLength": 4160,
      "target": 34962,
      "byteStride": 8
    },
    {
      "buffer": 0,
      "byteOffset": 16640,
      "byteLength": 3720,
      "target": 34963
    },
    {
      "buffer": 0,
      "byteOffset": 20360,
      "byteLength": 21192,
      "target": 34962,
      "byteStride": 12
    },
    {
      "buffer": 0,
      "byteOffset": 41552,
      "byteLength": 21192,
      "target": 34962,
      "byteStride": 12
    },
    {
      "buffer": 0,
      "byteOffset": 62744,
      "byteLength": 14128,
      "target": 34962,
      "byteStride": 8
    },
    {
      "buffer": 0,
      "byteOffset": 76872,
      "byteLength": 14128,
      "target": 34962,
      "byteStride": 8
    },
    {
      "buffer": 0,
      "byteOffset": 91000,
      "byteLength": 6852,
      "target": 34963
    },
    {
      "buffer": 0,
      "byteOffset": 97852,
      "byteLength": 7488,
      "target": 34962,
      "byteStride": 12
    },
    {
      "buffer": 0,
      "byteOffset": 105340,
      "byteLength": 7488,
      "target": 34962,
      "byteStride": 12
    },
    {
      "buffer": 0,
      "byteOffset": 112828,
      "byteLength": 4992,
      "target": 34962,
      "byteStride": 8
    },
    {
      "buffer": 0,
      "byteOffset": 117820,
      "byteLength": 4992,
      "target": 34962,
      "byteStride": 8
    },
    {
      "buffer": 0,
      "byteOffset": 122812,
      "byteLength": 2472,
      "target": 34963
    }
  ],
  "buffers": [
    {
      "byteLength": 125284,
      "uri": "data:application/octet-stream;base64,"
    }
  ],
  "accessors": [
    {
      "bufferView": 0,
      "componentType": 5126,
      "count": 520,
      "max": [
        0.004604183603078127,
        0.07256382703781128,
        0.03223299980163574
      ],
      "min": [
        0.004604183603078127,
        -0.05962193384766579,
        -0.028669564053416252
      ],
      "type": "VEC3"
    },
    {
      "bufferView": 1,
      "componentType": 5126,
      "count": 520,
      "max": [
        1,
        1,
        0
      ],
      "min": [
        -1,
        0,
        0
      ],
      "type": "VEC3"
    },
    {
      "bufferView": 2,
      "componentType": 5126,
      "count": 520,
      "max": [
        0.6189852356910706,
        0.9876411557197571
      ],
      "min": [
        0.3810149133205414,
        0.7623589038848877
      ],
      "type": "VEC2"
    },
    {
      "bufferView": 3,
      "componentType": 5123,
      "count": 1860,
      "max": [
        519
      ],
      "min": [
        0
      ],
      "type": "SCALAR"
    },
    {
      "bufferView": 4,
      "componentType": 5126,
      "count": 1766,
      "max": [
        0.004791887477040291,
        0.07590490579605103,
        0.03557407855987549
      ],
      "min": [
        -0.004780165385454893,
        -0.06296300888061523,
        -0.03201064467430115
      ],
      "type": "VEC3"
    },
    {
      "bufferView": 5,
      "componentType": 5126,
      "count": 1766,
      "max": [
        1,
        1,
        1
      ],
      "min": [
        -1,
        -1,
        -1
      ],
      "type": "VEC3"
    },
    {
      "bufferView": 6,
      "componentType": 5126,
      "count": 1766,
      "max": [
        0.8750000596046448,
        1
      ],
      "min": [
        0.125,
        0
      ],
      "type": "VEC2"
    },
    {
      "bufferView": 7,
      "componentType": 5126,
      "count": 1766,
      "max": [
        0.5337923765182495,
        0.5694339275360107
      ],
      "min": [
        0.4662076234817505,
        0.4305660128593445
      ],
      "type": "VEC2"
    },
    {
      "bufferView": 8,
      "componentType": 5123,
      "count": 3426,
      "max": [
        1765
      ],
      "min": [
        0
      ],
      "type": "SCALAR"
    },
    {
      "bufferView": 9,
      "componentType": 5126,
      "count": 624,
      "max": [
        0.004781035706400871,
        0.07099196314811707,
        0.011458314023911953
      ],
      "min": [
        0.002605047542601824,
        0.06530079245567322,
        -0.007744289003312588
      ],
      "type": "VEC3"
    },
    {
      "bufferView": 10,
      "componentType": 5126,
      "count": 624,
      "max": [
        1,
        1,
        1
      ],
      "min": [
        -1,
        -1,
        -1
      ],
      "type": "VEC3"
    },
    {
      "bufferView": 11,
      "componentType": 5126,
      "count": 624,
      "max": [
        0.8750000596046448,
        1
      ],
      "min": [
        0.125,
        0
      ],
      "type": "VEC2"
    },
    {
      "bufferView": 12,
      "componentType": 5126,
      "count": 624,
      "max": [
        0.5096012949943542,
        0.5087274312973022
      ],
      "min": [
        0.49039870500564575,
        0.49127256870269775
      ],
      "type": "VEC2"
    },
    {
      "bufferView": 13,
      "componentType": 5123,
      "count": 1236,
      "max": [
        623
      ],
      "min": [
        0
      ],
      "type": "SCALAR"
    }
  ],
  "materials": [
    {
      "pbrMetallicRoughness": {
        "metallicFactor": 0,
        "roughnessFactor": 1
      },
      "doubleSided": true,
      "name": "Plastic.001",
      "extensions": {
        "KHR_materials_ior": {
          "ior": 1.4500000476837158
        },
        "KHR_materials_specular": {
          "specularFactor": 0.5454545021057129,
          "specularColorFactor": [
            1,
            1,
            1
          ]
        }
      }
    },
    {
      "pbrMetallicRoughness": {
        "metallicFactor": 1,
        "roughnessFactor": 1
      },
      "doubleSided": true,
      "name": "Matte Metallic Paint.001"
    }
  ],
  "meshes": [
    {
      "primitives": [
        {
          "mode": 4,
          "attributes": {
            "POSITION": 0,
            "NORMAL": 1,
            "TEXCOORD_0": 2
          },
          "indices": 3,
          "material": 0
        }
      ]
    },
    {
      "primitives": [
        {
          "mode": 4,
          "attributes": {
            "POSITION": 4,
            "NORMAL": 5,
            "TEXCOORD_0": 6,
            "TEXCOORD_1": 7
          },
          "indices": 8,
          "material": 1
        }
      ]
    },
    {
      "primitives": [
        {
          "mode": 4,
          "attributes": {
            "POSITION": 9,
            "NORMAL": 10,
            "TEXCOORD_0": 11,
            "TEXCOORD_1": 12
          },
          "indices": 13,
          "material": 1
        }
      ]
    }
  ],
  "extensions": {
    "KHR_lights_punctual": {
      "lights": [
        {
          "name": "Point001",
          "color": [
            1,
            1,
            1
          ],
          "intensity": 0.15,
          "type": "point"
        },
        {
          "name": "Point",
          "color": [
            1,
            1,
            1
          ],
          "intensity": 0.1,
          "type": "point"
        }
      ]
    }
  },
  "cameras": [
    {
      "type": "perspective",
      "perspective": {
        "aspectRatio": 1.770011273957159,
        "yfov": 0.6911112070083619,
        "zfar": 1000,
        "znear": 0.10000000149011612
      },
      "name": "PerspectiveCamera"
    }
  ],
  "extensionsUsed": [
    "KHR_materials_ior",
    "KHR_materials_specular",
    "KHR_lights_punctual"
  ]
}