{
	"asset":{
		"generator":"Khronos glTF Blender I/O v4.1.63",
		"version":"2.0"
	},
	"extensionsUsed":[
		"KHR_lights_punctual",
		"KHR_materials_transmission"
	],
	"extensionsRequired":[
		"KHR_lights_punctual"
	],
	"extensions":{
		"KHR_lights_punctual":{
			"lights":[
				{
					"color":[
						1,
						1,
						1
					],
					"intensity":54351.41306588226,
					"type":"point",
					"name":"Light"
				}
			]
		}
	},
	"scene":0,
	"scenes":[
		{
			"name":"Scene",
			"nodes":[
				0,
				1,
				2,
				3,
				4,
				5,
				6,
				7,
				8,
				9
			]
		}
	],
	"nodes":[
		{
			"extensions":{
				"KHR_lights_punctual":{
					"light":0
				}
			},
			"name":"ALight",
			"rotation":[
				-0.28416627645492554,
				0.7269423007965088,
				0.34203392267227173,
				0.5232754945755005
			],
			"translation":[
				4.076245307922363,
				5.903861999511719,
				-1.0054539442062378
			]
		},
		{
			"name":"Area.003",
			"rotation":[
				-0.3591158390045166,
				-0.35911595821380615,
				-0.6091270446777344,
				0.6091270446777344
			],
			"scale":[
				13.95529842376709,
				13.955297470092773,
				13.955297470092773
			],
			"translation":[
				1.9690152406692505,
				6.839261531829834,
				3.4376373291015625
			]
		},
		{
			"name":"Area.002",
			"rotation":[
				0.75611811876297,
				-0.4949496388435364,
				0.24691633880138397,
				0.3497750163078308
			],
			"scale":[
				7.3780035972595215,
				7.378003120422363,
				7.378003120422363
			],
			"translation":[
				1.9690152406692505,
				-3.936817169189453,
				-1.9596061706542969
			]
		},
		{
			"name":"Area.001",
			"rotation":[
				0.6311540007591248,
				-0.19714875519275665,
				0.7329739928245544,
				0.15976935625076294
			],
			"scale":[
				25.26921844482422,
				6.761850833892822,
				7.120447158813477
			],
			"translation":[
				8.776521682739258,
				-5.0461649894714355,
				2.103923797607422
			]
		},
		{
			"name":"Area",
			"rotation":[
				-0.27059805393218994,
				-0.6532815098762512,
				-0.27059805393218994,
				0.6532815098762512
			],
			"scale":[
				597.8865356445312,
				6.40754508972168,
				6.40754508972168
			],
			"translation":[
				-4.852916240692139,
				4.77417516708374,
				-1.959606647491455
			]
		},
		{
			"name":"Area.004",
			"rotation":[
				0.6201184391975403,
				0,
				0,
				0.784508228302002
			],
			"scale":[
				6.411357402801514,
				6.4113569259643555,
				6.4113569259643555
			],
			"translation":[
				0,
				-1.7185460329055786,
				0
			]
		},
		{
			"mesh":0,
			"name":"Body",
			"rotation":[
				0.7071068286895752,
				0,
				0,
				0.7071068286895752
			]
		},
		{
			"mesh":1,
			"name":"Screen",
			"rotation":[
				0.7071068286895752,
				0,
				0,
				0.7071068286895752
			]
		},
		{
			"mesh":2,
			"name":"Reciever",
			"translation":[
				0.0022549715358763933,
				-0.31803229451179504,
				0.025176767259836197
			]
		},
		{
			"mesh":3,
			"name":"Glass",
			"rotation":[
				0.7071068286895752,
				0,
				0,
				0.7071068286895752
			]
		}
	],
	"materials":[
		{
			"doubleSided":true,
			"name":"Body",
			"pbrMetallicRoughness":{
				"baseColorFactor":[
					0.7311176657676697,
					0.2579253017902374,
					0.8006458282470703,
					1
				],
				"metallicFactor":0.8318182229995728,
				"roughnessFactor":0.4727272391319275
			}
		},
		{
			"doubleSided":true,
			"name":"Screen",
			"pbrMetallicRoughness":{
				"baseColorFactor":[
					0.800000011920929,
					0.800000011920929,
					0.800000011920929,
					1
				],
				"metallicFactor":0
			}
		},
		{
			"doubleSided":true,
			"extensions":{
				"KHR_materials_transmission":{
					"transmissionFactor":1
				}
			},
			"name":"Glas",
			"pbrMetallicRoughness":{
				"baseColorFactor":[
					1,
					1,
					1,
					0.20454545319080353
				],
				"metallicFactor":0,
				"roughnessFactor":0
			}
		}
	],
	"meshes":[
		{
			"name":"Cube.004",
			"primitives":[
				{
					"attributes":{
						"POSITION":0,
						"NORMAL":1,
						"TEXCOORD_0":2
					},
					"indices":3,
					"material":0
				}
			]
		},
		{
			"name":"Cube.006",
			"primitives":[
				{
					"attributes":{
						"POSITION":4,
						"NORMAL":5,
						"TEXCOORD_0":6
					},
					"indices":7,
					"material":1
				}
			]
		},
		{
			"name":"Cube.007",
			"primitives":[
				{
					"attributes":{
						"POSITION":8,
						"NORMAL":9,
						"TEXCOORD_0":10
					},
					"indices":11,
					"material":0
				}
			]
		},
		{
			"name":"Cube.008",
			"primitives":[
				{
					"attributes":{
						"POSITION":12,
						"NORMAL":13,
						"TEXCOORD_0":14
					},
					"indices":7,
					"material":2
				}
			]
		}
	],
	"accessors":[
		{
			"bufferView":0,
			"componentType":5126,
			"count":1370,
			"max":[
				0.6138627529144287,
				0.0429999977350235,
				0.35749998688697815
			],
			"min":[
				-0.6138627529144287,
				-0.0429999977350235,
				-0.35749998688697815
			],
			"type":"VEC3"
		},
		{
			"bufferView":1,
			"componentType":5126,
			"count":1370,
			"type":"VEC3"
		},
		{
			"bufferView":2,
			"componentType":5126,
			"count":1370,
			"type":"VEC2"
		},
		{
			"bufferView":3,
			"componentType":5123,
			"count":5886,
			"type":"SCALAR"
		},
		{
			"bufferView":4,
			"componentType":5126,
			"count":4,
			"max":[
				0.6050666570663452,
				0.04348339885473251,
				0.3376177251338959
			],
			"min":[
				-0.6050666570663452,
				0.04348339885473251,
				-0.34723329544067383
			],
			"type":"VEC3"
		},
		{
			"bufferView":5,
			"componentType":5126,
			"count":4,
			"type":"VEC3"
		},
		{
			"bufferView":6,
			"componentType":5126,
			"count":4,
			"type":"VEC2"
		},
		{
			"bufferView":7,
			"componentType":5123,
			"count":6,
			"type":"SCALAR"
		},
		{
			"bufferView":8,
			"componentType":5126,
			"count":24,
			"max":[
				0.05189819633960724,
				-0.02943115308880806,
				0.008600886911153793
			],
			"min":[
				-0.05189819633960724,
				-0.05189819633960724,
				-0.008600886911153793
			],
			"type":"VEC3"
		},
		{
			"bufferView":9,
			"componentType":5126,
			"count":24,
			"type":"VEC3"
		},
		{
			"bufferView":10,
			"componentType":5126,
			"count":24,
			"type":"VEC2"
		},
		{
			"bufferView":11,
			"componentType":5123,
			"count":36,
			"type":"SCALAR"
		},
		{
			"bufferView":12,
			"componentType":5126,
			"count":4,
			"max":[
				0.6050666570663452,
				0.04348339885473251,
				0.3376177251338959
			],
			"min":[
				-0.6050666570663452,
				0.04348339885473251,
				-0.34723329544067383
			],
			"type":"VEC3"
		},
		{
			"bufferView":13,
			"componentType":5126,
			"count":4,
			"type":"VEC3"
		},
		{
			"bufferView":14,
			"componentType":5126,
			"count":4,
			"type":"VEC2"
		}
	],
	"bufferViews":[
		{
			"buffer":0,
			"byteLength":16440,
			"byteOffset":0,
			"target":34962
		},
		{
			"buffer":0,
			"byteLength":16440,
			"byteOffset":16440,
			"target":34962
		},
		{
			"buffer":0,
			"byteLength":10960,
			"byteOffset":32880,
			"target":34962
		},
		{
			"buffer":0,
			"byteLength":11772,
			"byteOffset":43840,
			"target":34963
		},
		{
			"buffer":0,
			"byteLength":48,
			"byteOffset":55612,
			"target":34962
		},
		{
			"buffer":0,
			"byteLength":48,
			"byteOffset":55660,
			"target":34962
		},
		{
			"buffer":0,
			"byteLength":32,
			"byteOffset":55708,
			"target":34962
		},
		{
			"buffer":0,
			"byteLength":12,
			"byteOffset":55740,
			"target":34963
		},
		{
			"buffer":0,
			"byteLength":288,
			"byteOffset":55752,
			"target":34962
		},
		{
			"buffer":0,
			"byteLength":288,
			"byteOffset":56040,
			"target":34962
		},
		{
			"buffer":0,
			"byteLength":192,
			"byteOffset":56328,
			"target":34962
		},
		{
			"buffer":0,
			"byteLength":72,
			"byteOffset":56520,
			"target":34963
		},
		{
			"buffer":0,
			"byteLength":48,
			"byteOffset":56592,
			"target":34962
		},
		{
			"buffer":0,
			"byteLength":48,
			"byteOffset":56640,
			"target":34962
		},
		{
			"buffer":0,
			"byteLength":32,
			"byteOffset":56688,
			"target":34962
		}
	],
	"buffers":[
		{
			"byteLength":56720,
			"uri":"data:application/octet-stream;base64,"
		}
	]
}
